<?xml version="1.0" encoding="UTF-8"?>
<svg version="1.1" xmlns="http://www.w3.org/2000/svg" width="1080" height="1080">
<path d="M0 0 C3.60308783 0.0042257 7.20615645 -0.0032625 10.80923936 -0.00915251 C17.10505507 -0.01786082 23.40083824 -0.01924591 29.69665846 -0.01564924 C39.0592817 -0.01031483 48.42187374 -0.01646486 57.78449358 -0.02473217 C75.48267118 -0.03993168 93.18083443 -0.04168147 110.87901719 -0.03920914 C124.54873897 -0.03737307 138.21845606 -0.03914266 151.88817725 -0.04343358 C153.85541762 -0.044036 155.822658 -0.04463719 157.78989838 -0.04523719 C160.75469555 -0.04614448 163.71949272 -0.04705316 166.68428989 -0.04796954 C194.23068744 -0.0563928 221.77708323 -0.06073903 249.32348189 -0.05656282 C250.36082325 -0.05640644 251.39816461 -0.05625007 252.46694055 -0.05608895 C257.72403609 -0.05528322 262.98113162 -0.05443745 268.23822715 -0.05357565 C269.80421114 -0.05331902 269.80421114 -0.05331902 271.40183116 -0.0530572 C273.51302738 -0.05271054 275.62422359 -0.05236201 277.7354198 -0.05201161 C310.58676842 -0.04665425 343.4380902 -0.05458786 376.28943381 -0.07304517 C413.23768986 -0.09378023 450.18592929 -0.10448513 487.13419149 -0.10046969 C491.07683477 -0.10007437 495.01947805 -0.09971281 498.96212134 -0.0993723 C500.418183 -0.09923621 500.418183 -0.09923621 501.90366005 -0.09909736 C516.52947486 -0.09793352 531.15527283 -0.10456333 545.78108344 -0.11518422 C562.42136827 -0.127256 579.06161611 -0.12877232 595.70190151 -0.11639406 C605.00224535 -0.1097846 614.30250061 -0.1113522 623.60283729 -0.12498257 C629.82955909 -0.13326811 636.05621501 -0.13047666 642.28293153 -0.1190073 C645.8210015 -0.11279133 649.3588995 -0.11104364 652.89695908 -0.12287064 C676.91828364 -0.18687847 702.47585617 0.59824519 724.88709006 10.33735522 C727.0047692 11.240035 729.11254012 11.95275569 731.30896506 12.63813647 C741.48592578 15.97041564 751.12754505 20.35953119 760.05896506 26.26313647 C760.65467307 26.6566228 761.25038107 27.05010913 761.86414084 27.45551928 C778.54923346 38.54051053 796.83715653 51.43042368 808.05896506 68.26313647 C808.84271506 69.04688647 809.62646506 69.83063647 810.43396506 70.63813647 C815.05309403 75.25726544 818.74480264 80.42184177 821.86365256 86.16157397 C823.49544909 89.03054957 825.29042867 91.78904961 827.05896506 94.57563647 C829.95353714 99.24776581 832.32765186 103.77286775 834.17224631 108.94673022 C835.05785411 111.3830503 835.05785411 111.3830503 836.48474631 114.05610522 C843.37842393 128.10004896 846.36728013 143.9680327 849.05896506 159.26313647 C849.23054601 160.22290172 849.40212697 161.18266698 849.57890734 162.17151602 C850.33547918 167.57024333 850.21253163 173.00034503 850.21718344 178.4412218 C850.22212195 179.67256769 850.22706046 180.90391359 850.23214862 182.17257299 C850.24485089 185.59294921 850.25315045 189.0132847 850.25957604 192.43367507 C850.26762536 196.15290616 850.28131904 199.87211725 850.29426035 203.59133395 C850.31899761 210.96611937 850.33835931 218.34091004 850.35599188 225.7157155 C850.37078476 231.84474214 850.38777953 237.97375939 850.40621314 244.10277613 C850.41020051 245.42901456 850.41020051 245.42901456 850.41426844 246.78204569 C850.41969776 248.58508721 850.42513092 250.38812872 850.43056783 252.19117022 C850.494453 273.49493843 850.54747525 294.79872978 850.5991503 316.10253048 C850.62366794 326.17575215 850.64972095 336.24896971 850.67580193 346.32218743 C850.94557404 450.69831034 851.14757659 555.07470252 851.23640762 704.10309705 C851.24244887 718.67442357 851.25354124 733.24573988 851.26724753 747.81706103 C851.28275294 764.38629947 851.2907187 780.955523 851.28871522 797.52476897 C851.28784135 805.96460657 851.28987696 814.40441513 851.30083594 822.84424647 C851.30990892 829.84274141 851.31215109 836.84119614 851.30542458 843.8396945 C851.30223486 847.35476947 851.30202021 850.86976668 851.31084392 854.38483378 C851.36366546 880.14455819 849.74637663 903.82445913 841.67322287 928.38081225 C841.09656443 930.14791743 840.54182615 931.92213318 839.98865256 933.69673022 C838.18789137 939.37550862 836.14783671 944.18144439 833.05896506 949.26313647 C832.40927756 950.84094897 832.40927756 950.84094897 831.74646506 952.45063647 C827.89016054 961.7474571 821.96532645 970.17128304 816.05896506 978.26313647 C815.60134787 978.90380053 815.14373068 979.54446459 814.67224631 980.20454272 C806.21909945 991.80642623 796.71951808 1003.55117773 784.91834006 1011.84126147 C782.96811204 1013.26526907 782.96811204 1013.26526907 781.11755881 1015.22407397 C777.51812422 1018.78935833 773.23436633 1021.41938329 769.05896506 1024.26313647 C768.0244924 1025.00757006 768.0244924 1025.00757006 766.96912131 1025.76704272 C760.40375402 1030.39178321 753.25362397 1033.80241457 746.0448049 1037.29121264 C744.02800734 1038.27828802 742.03073362 1039.2993963 740.03162131 1040.32173022 C725.88068278 1047.3911822 710.51126952 1050.44221433 695.05896506 1053.26313647 C693.77484685 1053.50825063 693.77484685 1053.50825063 692.46478686 1053.7583166 C688.29207266 1054.37680728 684.16256435 1054.62409298 679.9513143 1054.81754931 C678.58207339 1054.88074038 678.58207339 1054.88074038 677.18517104 1054.94520804 C664.72174161 1055.46424482 652.25321435 1055.40281233 639.78137717 1055.392531 C636.96249949 1055.39331351 634.14362337 1055.39557462 631.32474646 1055.39773806 C624.42750968 1055.40210756 617.53028368 1055.40107875 610.63304652 1055.39824053 C604.88878578 1055.39602755 599.14452884 1055.39613921 593.40026793 1055.39770755 C592.14970961 1055.39804766 592.14970961 1055.39804766 590.87388748 1055.39839465 C589.17261444 1055.39886581 587.4713414 1055.3993407 585.77006836 1055.39981923 C565.70452476 1055.40508901 545.63898886 1055.39930256 525.57344679 1055.39138992 C518.91650477 1055.3887836 512.25956272 1055.38662352 505.60262045 1055.38473376 C452.18796572 1055.36947786 398.77334485 1055.3324971 345.3587115 1055.28302928 C330.41378105 1055.26921875 315.46885018 1055.2571501 300.52391715 1055.24651844 C252.79955459 1055.21249303 205.07526443 1055.16416356 157.35096774 1055.07601985 C153.26812942 1055.06851693 149.18529103 1055.0610491 145.10245261 1055.05360278 C144.09667178 1055.05175822 143.09089096 1055.04991367 142.05463193 1055.04801322 C126.88492591 1055.02046522 111.71523313 1055.00371108 96.54550681 1054.99268969 C79.25998949 1054.98011605 61.97455793 1054.95364838 44.68909303 1054.90872403 C35.0042659 1054.88395303 25.3195674 1054.86995277 15.63470798 1054.87167116 C9.14300611 1054.87170178 2.65143961 1054.85708733 -3.84020929 1054.83095965 C-7.53314449 1054.81649289 -11.22580184 1054.80798435 -14.91876009 1054.81733593 C-31.03960792 1054.85354795 -46.22703927 1054.03098283 -61.94103494 1050.26313647 C-63.44594623 1049.92587417 -64.95137379 1049.59090592 -66.4573504 1049.25843295 C-81.64878853 1045.83212148 -95.22190151 1039.43592541 -108.94103494 1032.26313647 C-109.81759744 1031.80938647 -110.69415994 1031.35563647 -111.59728494 1030.88813647 C-116.62666995 1028.19635294 -121.24665169 1025.0478255 -125.87462869 1021.71626147 C-127.86930238 1020.23705333 -127.86930238 1020.23705333 -129.94103494 1019.26313647 C-129.94103494 1018.60313647 -129.94103494 1017.94313647 -129.94103494 1017.26313647 C-130.76281228 1017.16258959 -130.76281228 1017.16258959 -131.60119119 1017.06001147 C-134.92022085 1015.92965746 -136.8307865 1013.90187148 -139.37853494 1011.51313647 C-140.76878885 1010.22149584 -140.76878885 1010.22149584 -142.18712869 1008.90376147 C-143.97485276 1007.18957499 -145.73962837 1005.45100756 -147.47619119 1003.68501147 C-149.87440231 1001.24016526 -149.87440231 1001.24016526 -152.49181619 999.25532397 C-161.19722556 992.17436898 -167.56187226 981.42295981 -173.94103494 972.26313647 C-174.519824 971.44844897 -175.09861307 970.63376147 -175.69494119 969.79438647 C-179.76508938 963.9282721 -182.8743529 957.69997429 -185.94103494 951.26313647 C-186.43603494 950.26540209 -186.93103494 949.26766772 -187.44103494 948.23969897 C-197.8888736 926.6366159 -204.11337947 902.23926303 -204.06966939 878.23601588 C-204.07142243 877.0207798 -204.07317547 875.80554373 -204.07498163 874.55348232 C-204.07883418 871.17775115 -204.07821194 867.80207442 -204.07570386 864.42634554 C-204.07406993 860.75459334 -204.07821234 857.0828469 -204.08161303 853.41109654 C-204.08676715 846.97471001 -204.08818421 840.53833101 -204.08715692 834.10194262 C-204.08563296 824.53034937 -204.08979166 814.95876445 -204.09503155 805.38717282 C-204.1047084 787.29614924 -204.10751594 769.2051285 -204.1080886 751.11410264 C-204.10854803 737.14082452 -204.11060578 723.1675475 -204.11378923 709.19426974 C-204.11468677 705.17293013 -204.11557659 701.15159051 -204.11646411 697.13025089 C-204.11668515 696.1305373 -204.1169062 695.13082371 -204.11713395 694.10081577 C-204.12328945 665.97464336 -204.12723439 637.84847134 -204.12679067 609.72229823 C-204.1267673 608.13124397 -204.1267673 608.13124397 -204.12674346 606.5080472 C-204.12666035 601.13191596 -204.12656131 595.75578473 -204.12645875 590.37965349 C-204.12643881 589.31192955 -204.12641886 588.2442056 -204.12639831 587.14412638 C-204.12635788 584.98492567 -204.12631608 582.82572496 -204.12627292 580.66652425 C-204.1256604 547.0856055 -204.13316197 513.50469686 -204.14684549 479.923781 C-204.16221199 442.19705635 -204.17081133 404.47033833 -204.16988227 366.74361035 C-204.16980764 362.71912718 -204.16975893 358.69464402 -204.16972795 354.67016085 C-204.1697163 353.6792305 -204.16970464 352.68830015 -204.16969263 351.66734161 C-204.16966188 335.73095055 -204.17604383 319.79456828 -204.18466021 303.85817984 C-204.19314461 287.83416842 -204.19412052 271.81016983 -204.18755089 255.78615741 C-204.18386018 246.27155497 -204.18567325 236.75699152 -204.19549323 227.24239323 C-204.20150497 220.87877599 -204.20018452 214.51518691 -204.19302273 208.15157094 C-204.18915123 204.5310082 -204.1883365 200.91052075 -204.19648009 197.2899634 C-204.23419919 179.35335145 -203.87807171 161.99568954 -199.75353494 144.45063647 C-199.5399534 143.5339519 -199.32637186 142.61726733 -199.10631814 141.67280444 C-195.31149299 126.00653937 -189.65598883 111.39923211 -181.94103494 97.26313647 C-181.47310525 96.40075366 -181.00517557 95.53837084 -180.52306619 94.64985522 C-172.83801399 81.24045329 -163.45035156 68.75870621 -152.52306619 57.84907397 C-150.77747623 56.10084317 -149.05517105 54.32909872 -147.35509744 52.53657397 C-134.44904343 39.02456923 -118.81956516 28.26530817 -101.94103494 20.26313647 C-100.25257609 19.41086676 -98.56512696 18.55659458 -96.87853494 17.70063647 C-90.59885929 14.5751358 -84.41885896 12.00149112 -77.66369119 10.10688647 C-75.45003407 9.42087508 -73.35473355 8.64758962 -71.20275369 7.79829272 C-66.7766291 6.12107898 -62.32802882 5.11227847 -57.69103494 4.20063647 C-56.94080057 4.04014819 -56.19056619 3.87965991 -55.41759744 3.71430834 C-37.10754936 0.04935499 -18.59360649 -0.03341345 0 0 Z " fill="#2A663C" transform="translate(216.94103494100273,12.736863530240953)"/>
<path d="M0 0 C1.70199302 -0.00243488 3.40398459 -0.0061609 5.10597229 -0.01106262 C9.68246963 -0.02038007 14.25874966 -0.01112402 18.83522987 0.00226951 C23.65280769 0.01368579 28.47037638 0.0094687 33.28796387 0.00752258 C41.3741404 0.0066428 49.46023259 0.01765367 57.54638672 0.03613281 C66.8594064 0.05729551 76.17230269 0.06080835 85.48534155 0.05457085 C94.49016777 0.0488514 103.49495109 0.05455315 112.49977112 0.0657444 C116.31117049 0.07035632 120.12254332 0.07127916 123.9339447 0.06915855 C128.43209229 0.06725741 132.93011654 0.07551793 137.42823601 0.09121895 C139.06675137 0.09541589 140.70527936 0.09634385 142.34379768 0.09352875 C169.60339969 0.05384209 193.73562887 5.58508139 213.93457031 24.82006836 C223.77938394 34.76814926 230.68167221 46.6851543 236.83398438 59.1496582 C239.46584933 64.43823578 242.34718106 69.56043015 245.28320312 74.68481445 C250.64461096 84.10529255 255.92384752 93.56839111 261.15820312 103.05981445 C261.50976471 103.69650055 261.86132629 104.33318665 262.22354126 104.98916626 C263.22749387 106.8077436 264.23021845 108.62699142 265.23242188 110.4465332 C265.80951904 111.49413818 266.38661621 112.54174316 266.98120117 113.62109375 C268.18959068 115.85307889 269.35511259 118.09298577 270.47070312 120.37231445 C274.13387659 119.00053252 277.4179115 117.34387387 280.78710938 115.3605957 C281.79966797 114.76698242 282.81222656 114.17336914 283.85546875 113.56176758 C284.90412109 112.94237305 285.95277344 112.32297852 287.03320312 111.68481445 C290.13138591 109.86499857 293.2295479 108.04520526 296.33056641 106.23022461 C298.48123203 104.95775023 300.61978714 103.66464581 302.74755859 102.35424805 C303.79959473 101.71438965 304.85163086 101.07453125 305.93554688 100.4152832 C306.87906006 99.83157959 307.82257324 99.24787598 308.79467773 98.64648438 C311.62865581 97.29710644 313.37645253 97.09911699 316.47070312 97.37231445 C316.71059453 102.33622121 316.29774481 105.52233351 314.03320312 109.93481445 C311.09429992 115.94431699 308.5256402 122.0397453 306.03320312 128.24731445 C302.91181703 135.97717752 299.59927691 143.55531867 296.01367188 151.0793457 C294.16345652 155.02803315 292.50275076 159.03582206 290.85351562 163.0715332 C289.10545678 167.24415954 287.25800625 171.36900755 285.40820312 175.49731445 C282.92119381 181.04843868 280.53489526 186.61051974 278.33398438 192.2824707 C277.45967323 194.39901578 276.4651629 196.40402658 275.40820312 198.43481445 C274.02861162 201.10124286 272.98345883 203.70247621 272.09179688 206.56762695 C270.56030045 211.25990191 268.64775003 215.7002574 266.59570312 220.18481445 C265.88367534 221.76244783 265.17273885 223.34057419 264.46289062 224.91918945 C264.1209668 225.6790918 263.77904297 226.43899414 263.42675781 227.22192383 C262.1440561 230.10702001 260.92547572 233.01642121 259.72070312 235.93481445 C259.140625 237.32700195 259.140625 237.32700195 258.54882812 238.74731445 C257.83304773 240.49008412 257.1349102 242.24021001 256.45507812 243.99731445 C255.09905008 247.35509818 253.98463997 249.85837761 251.40820312 252.43481445 C242.91916118 255.14408316 233.19513194 252.93551286 224.59570312 251.62231445 C213.24153558 249.96845935 201.88333415 248.61550892 190.47070312 247.43481445 C177.1949086 246.05589634 163.97971227 244.41270427 150.76303101 242.55285645 C141.77786279 241.29217894 132.79463457 240.15523512 123.76757812 239.2355957 C122.44565712 239.10077286 122.44565712 239.10077286 121.09703064 238.96322632 C116.82461004 238.53166569 112.55118742 238.11535925 108.27563477 237.71606445 C106.74299491 237.56639027 105.21036112 237.41665407 103.67773438 237.2668457 C102.6227475 237.17491692 102.6227475 237.17491692 101.54644775 237.08113098 C96.6966106 236.59822192 96.6966106 236.59822192 94.47070312 234.37231445 C94.01220703 231.98339844 94.01220703 231.98339844 94.47070312 229.37231445 C96.69873047 227.43115234 96.69873047 227.43115234 99.80664062 225.5949707 C100.93457031 224.9162793 102.0625 224.23758789 103.22460938 223.53833008 C104.43137259 222.83669699 105.63840548 222.13552754 106.84570312 221.43481445 C108.01467383 220.73922992 109.18265508 220.04197969 110.34960938 219.34301758 C112.63014846 217.98083172 114.91673128 216.6311729 117.20800781 215.28686523 C121.64850989 212.68117702 126.0604076 210.02870137 130.47070312 207.37231445 C128.36914978 198.34994504 122.24260521 190.23540278 117.5534668 182.31445312 C114.25902005 176.74123171 111.04176283 171.1274203 107.84570312 165.49731445 C102.77928643 156.5803212 97.56076739 147.75756205 92.31066895 138.94805908 C87.14175609 130.26835473 82.13279753 121.51939073 77.29101562 112.65356445 C75.52609177 109.36719183 75.52609177 109.36719183 73.47070312 106.37231445 C72.81070313 106.37231445 72.15070313 106.37231445 71.47070312 106.37231445 C71.08438721 107.06977783 70.69807129 107.76724121 70.30004883 108.48583984 C58.58545538 129.62676347 46.80744711 150.72045787 34.58007812 171.57055664 C29.44533826 180.35442344 24.52467335 189.24623495 19.66479492 198.18432617 C11.58105284 212.99653155 3.26595752 227.6968165 -5.27929688 242.24731445 C-5.69719482 242.96016602 -6.11509277 243.67301758 -6.5456543 244.4074707 C-9.40189102 249.24490859 -9.40189102 249.24490859 -10.52929688 250.37231445 C-16.69638362 251.32109703 -20.67993366 248.35229851 -25.71679688 245.24731445 C-27.42067473 244.22816649 -29.12509838 243.20993044 -30.83007812 242.19262695 C-32.05138428 241.45641113 -32.05138428 241.45641113 -33.29736328 240.70532227 C-38.60691168 237.53422904 -44.08610601 234.66335458 -49.55273438 231.7746582 C-56.12158573 228.28346481 -62.5521136 224.63600044 -68.88964844 220.74414062 C-73.36513211 218.01128429 -77.93839327 215.49090056 -82.54931641 212.99414062 C-87.77825188 210.14834197 -92.96336829 207.22418616 -98.15429688 204.30981445 C-105.27177154 200.31697994 -112.390989 196.32781425 -119.52929688 192.37231445 C-119.52929688 191.71231445 -119.52929688 191.05231445 -119.52929688 190.37231445 C-120.43164062 190.18540039 -121.33398438 189.99848633 -122.26367188 189.8059082 C-128.25709329 188.09026869 -133.45951936 184.59662934 -138.77929688 181.43481445 C-139.86726563 180.80124023 -140.95523437 180.16766602 -142.07617188 179.51489258 C-151.48842753 173.97587331 -151.48842753 173.97587331 -153.52929688 171.37231445 C-153.49809793 165.13252597 -150.81041456 160.61706974 -147.77929688 155.37231445 C-147.28977539 154.50421143 -146.80025391 153.6361084 -146.29589844 152.74169922 C-144.716945 149.94615468 -143.1232534 147.1593262 -141.52929688 144.37231445 C-140.49677255 142.54881668 -139.46551876 140.72459889 -138.43554688 138.8996582 C-136.84307941 136.07826176 -135.24961804 133.25747251 -133.65161133 130.43920898 C-129.37829486 122.89997862 -125.16568185 115.32820361 -120.96679688 107.74731445 C-115.06148146 97.0927427 -109.06816002 86.49307851 -102.99853516 75.93139648 C-100.93764485 72.34178993 -98.88452816 68.74776585 -96.83251953 65.15307617 C-95.80681248 63.35800822 -94.7791797 61.5640391 -93.74951172 59.77124023 C-91.58643694 56.00171718 -89.43722788 52.23072476 -87.38476562 48.3996582 C-75.45687089 26.30034308 -56.50902698 10.97873099 -32.52929688 3.37231445 C-21.60302901 0.5405355 -11.23084127 -0.05711965 0 0 Z " fill="#FCFCFC" transform="translate(469.529296875,184.627685546875)"/>
<path d="M0 0 C6.62086516 4.61920825 8.93917044 13.23763042 11.75 20.5 C14.07064427 26.4347624 16.87129097 32.1431188 19.65136719 37.87304688 C21.5536406 41.82227828 23.34112066 45.77362212 24.94140625 49.85546875 C27.20310323 55.61994235 29.81866435 61.20339439 32.4375 66.8125 C35.83986639 74.15227334 39.0380052 81.45137915 41.8203125 89.046875 C43.70032783 93.75313855 46.02348649 98.21279968 48.3515625 102.7109375 C51.20034974 108.39501062 53.50881486 114.26645804 55.8125 120.1875 C58.12871322 126.07564279 60.74753709 131.71509045 63.703125 137.31640625 C65.91536076 141.89413507 67.3006213 145.8894379 67 151 C64.9375 151.75 64.9375 151.75 62 152 C60.42598371 151.14104928 58.8586254 150.26829181 57.32104492 149.34570312 C54.42393178 147.66600526 51.46029634 146.14532581 48.48046875 144.6171875 C47.89218796 144.31486206 47.30390717 144.01253662 46.69779968 143.7010498 C44.23407221 142.43521156 41.76909704 141.17186075 39.30200195 139.91259766 C37.48474167 138.98416054 35.66995976 138.05102239 33.85546875 137.1171875 C32.77934326 136.56659668 31.70321777 136.01600586 30.59448242 135.44873047 C28 134 28 134 26 132 C25.01 132 24.02 132 23 132 C22.61070312 132.81339844 22.22140625 133.62679687 21.8203125 134.46484375 C18.06894936 142.14908761 14.00045645 149.54728768 9.62353516 156.89257812 C6.84525075 161.55510791 4.17464269 166.25555198 1.6015625 171.03515625 C-4.13260269 181.65035474 -10.06781002 192.15526632 -16.0625 202.625 C-16.56523437 203.50333496 -17.06796875 204.38166992 -17.5859375 205.28662109 C-18.08222656 206.15367676 -18.57851563 207.02073242 -19.08984375 207.9140625 C-21.77491341 212.60560663 -24.45881638 217.29769144 -27.125 222 C-27.49117432 222.64018066 -27.85734863 223.28036133 -28.23461914 223.93994141 C-30.09123956 227.22435653 -31.63686841 230.48648163 -33 234 C-32.3753504 233.99484627 -31.7507008 233.98969254 -31.10712242 233.98438263 C-15.70525568 233.85741681 -0.30337563 233.73222016 15.09852028 233.60884857 C22.54762077 233.54914009 29.99671592 233.48887582 37.44580078 233.42724609 C40.35058552 233.40326978 43.25537068 233.37934506 46.16015625 233.35546875 C46.87472032 233.3495937 47.58928439 233.34371864 48.32550192 233.33766556 C60.1628521 233.24070813 72.00025897 233.15648938 83.83775711 233.07980347 C90.76108965 233.03381105 97.68399945 232.97463528 104.60702705 232.89510345 C108.24440266 232.8554012 111.88179479 232.8269656 115.51929855 232.80201721 C117.12517017 232.78835857 118.73100743 232.76949379 120.33675003 232.74497986 C122.46732702 232.71288749 124.5972487 232.69871761 126.72802734 232.68945312 C127.88184906 232.67692505 129.03567078 232.66439697 130.22445679 232.65148926 C133 233 133 233 134.65008259 234.12280941 C136.62952843 236.87542011 136.37470595 239.01479268 136.3742218 242.38356018 C136.37819621 243.03399715 136.38217061 243.68443412 136.38626546 244.3545813 C136.3959043 246.53812232 136.3840615 248.72101798 136.37231445 250.90454102 C136.37474188 252.46822349 136.37846073 254.03190442 136.38337708 255.59558105 C136.39279566 259.84548477 136.38335301 264.09515859 136.37004495 268.34504437 C136.35874518 272.78707246 136.36283676 277.22908899 136.36479187 281.67112732 C136.36567522 289.13031785 136.35458511 296.58941757 136.33618164 304.04858398 C136.31500563 312.68110603 136.31150553 321.31349507 136.3177436 329.94603783 C136.32343137 338.24075047 136.31779904 346.53541613 136.30657005 354.83012199 C136.30191707 358.36478479 136.30105322 361.89941891 136.3031559 365.43408394 C136.30503478 369.59305673 136.29696588 373.75189349 136.2810955 377.91083527 C136.27684071 379.44030889 136.27601009 380.96979628 136.27878571 382.4992733 C136.28199101 384.58080769 136.27296815 386.66193133 136.26069641 388.74342346 C136.25864354 389.9102041 136.25659067 391.07698473 136.25447559 392.27912235 C136 395 136 395 134 397 C131.40913963 397.25447559 131.40913963 397.25447559 128.0586853 397.26069641 C126.15819679 397.27132362 126.15819679 397.27132362 124.21931458 397.28216553 C122.80685389 397.27987132 121.39439355 397.27736156 119.98193359 397.2746582 C118.50022626 397.27900387 117.01852118 397.28418653 115.53681946 397.29014587 C111.50084318 397.30357815 107.46496033 397.30410876 103.42896605 397.30158257 C100.05280511 397.30051347 96.67666312 397.30539585 93.30050623 397.310188 C85.32011482 397.32130255 77.33977043 397.32171284 69.359375 397.31567383 C61.15826266 397.30966219 52.9573231 397.32186857 44.75624025 397.3432439 C37.69952159 397.36095266 30.64285741 397.36684585 23.58611739 397.36360615 C19.37920614 397.36180429 15.17241751 397.36431657 10.96552658 397.37832069 C6.99444751 397.39104213 3.02363274 397.38882217 -0.94744301 397.37590981 C-2.3920266 397.37357338 -3.83662959 397.37617093 -5.28119087 397.38453293 C-29.44154244 397.51410448 -50.46019429 390.69490449 -69 375 C-69.60328125 374.54238281 -70.2065625 374.08476563 -70.828125 373.61328125 C-81.66277612 365.18351765 -88.18009482 352.54140212 -94.734375 340.79296875 C-98.17525508 334.6387631 -101.79359493 328.59811069 -105.4375 322.5625 C-110.19811162 314.66406121 -114.93907142 306.75551202 -119.625 298.8125 C-120.15270996 297.91813232 -120.68041992 297.02376465 -121.22412109 296.10229492 C-122.81667862 293.40188191 -124.40840994 290.70098331 -126 288 C-132.29984397 277.31306756 -138.60712167 266.6316117 -145 256 C-149.32532169 248.79929784 -153.64382498 241.59462648 -157.9375 234.375 C-158.46923828 233.48683594 -159.00097656 232.59867188 -159.54882812 231.68359375 C-164.45620909 223.41132926 -168.97132842 215.17798168 -171.75 205.9375 C-171.95753906 205.29490234 -172.16507813 204.65230469 -172.37890625 203.99023438 C-178.61278887 183.78038911 -176.42809888 159.2131911 -166.609375 140.57177734 C-165.84979774 139.17282189 -165.08411903 137.77716792 -164.31347656 136.38427734 C-162.82528224 133.68284505 -161.37652668 130.96208242 -159.9296875 128.23828125 C-156.6531346 122.08653175 -153.33554801 115.95775431 -150.00097656 109.83728027 C-149.3202851 108.58787939 -148.6399601 107.33827879 -147.95996094 106.08850098 C-145.82697519 102.16862457 -143.68827605 98.25194869 -141.54223633 94.33920288 C-140.85720524 93.08926988 -140.17341102 91.83865806 -139.4909668 90.58731079 C-135.99536116 84.18292377 -132.45391998 77.91575483 -128.25634766 71.94189453 C-126.46733843 69.17668284 -125.21508772 66.24913792 -123.9453125 63.21875 C-122.45863284 59.72935311 -120.72035073 56.37926036 -119 53 C-119.71542969 52.72285156 -120.43085938 52.44570313 -121.16796875 52.16015625 C-135.40773586 46.326762 -148.90385133 38.02768728 -162 30 C-161.8125 27.625 -161.8125 27.625 -161 25 C-156.66817677 22.26963869 -150.92995925 22.14856588 -145.9375 21.5 C-144.03633012 21.24052104 -142.13528705 20.98011111 -140.234375 20.71875 C-139.32494141 20.595 -138.41550781 20.47125 -137.47851562 20.34375 C-130.10729675 19.32142177 -122.80655176 17.96564875 -115.5 16.5625 C-108.61927117 15.24285143 -101.71556626 14.19715326 -94.78198242 13.19775391 C-88.58668202 12.28548279 -82.45441023 11.15509888 -76.3125 9.9375 C-69.48685458 8.5883024 -62.73463853 7.55820303 -55.81494141 6.86132812 C-47.93436879 5.99901623 -40.19243635 4.37040696 -32.43481445 2.76391602 C-26.1063585 1.48186442 -19.91952189 0.62658496 -13.47192383 0.23071289 C-2.78695869 -0.76655052 -2.78695869 -0.76655052 0 0 Z " fill="#FCFCFC" transform="translate(365,432)"/>
<path d="M0 0 C4.37507814 1.26391146 5.64138729 5.05429347 7.8125 8.8125 C8.36558838 9.76261963 8.91867676 10.71273926 9.48852539 11.69165039 C11.42247884 15.03683211 13.33858841 18.39191599 15.25 21.75 C15.95863328 22.99228347 16.66729257 24.2345521 17.37597656 25.47680664 C22.56166271 34.57580792 27.68930917 43.70670338 32.79370117 52.8515625 C36.51127957 59.50692678 40.26986131 66.13714713 44.0625 72.75 C48.08088143 79.75740115 52.04862608 86.78940444 55.94970703 93.86279297 C58.27907973 98.07904105 60.64283888 102.27278132 63.04296875 106.44921875 C79.72243169 135.50167051 92.0309116 162.63394337 83.3125 196.8125 C80.61805049 206.46335124 76.83408296 215.16619856 71.8125 223.8125 C71.44672852 224.44687988 71.08095703 225.08125977 70.70410156 225.73486328 C68.71342877 229.17010268 66.68917624 232.58416659 64.65234375 235.9921875 C61.24587628 241.72695659 58.00035662 247.55077456 54.75 253.375 C54.14534912 254.45821533 53.54069824 255.54143066 52.91772461 256.6574707 C51.74290748 258.763438 50.56849488 260.86963102 49.39453125 262.97607422 C47.35414545 266.63428443 45.30451966 270.28721354 43.25 273.9375 C42.90614258 274.54907959 42.56228516 275.16065918 42.20800781 275.79077148 C40.07923983 279.57357077 37.94037045 283.35052607 35.796875 287.125 C29.31021048 298.55597032 22.93322488 310.03859383 16.65625 321.5859375 C12.43026377 329.35934714 8.17302686 337.11361467 3.8125 344.8125 C3.4299707 345.48925781 3.04744141 346.16601562 2.65332031 346.86328125 C-6.92357744 363.68204456 -18.08580177 376.26674077 -35.1875 385.8125 C-36.26773438 386.4725 -37.34796875 387.1325 -38.4609375 387.8125 C-42.33115818 390.02129917 -46.28863764 391.29604058 -50.5625 392.5 C-51.26632812 392.71205078 -51.97015625 392.92410156 -52.6953125 393.14257812 C-61.30950113 395.63409071 -69.83346906 395.96014801 -78.75610352 395.92602539 C-79.77178909 395.92617142 -80.78747467 395.92631744 -81.8339386 395.9264679 C-85.16145022 395.92577617 -88.48890452 395.91801868 -91.81640625 395.91015625 C-94.13524851 395.90828944 -96.45409116 395.90686678 -98.77293396 395.90586853 C-104.85394392 395.90206408 -110.93492971 395.89225161 -117.01593018 395.88116455 C-123.23001783 395.87090576 -129.44410943 395.86636136 -135.65820312 395.86132812 C-147.83464599 395.85062737 -160.01107098 395.83357599 -172.1875 395.8125 C-172.18520889 396.5395665 -172.18291779 397.266633 -172.18055725 398.01573181 C-172.17135077 401.37376738 -172.1657361 404.73180027 -172.16015625 408.08984375 C-172.15649048 409.23304077 -172.15282471 410.37623779 -172.14904785 411.55407715 C-172.140005 418.83874011 -172.28248314 426.09836473 -172.625 433.375 C-172.66387329 434.21446167 -172.70274658 435.05392334 -172.74279785 435.91882324 C-173.05958468 441.68458468 -173.05958468 441.68458468 -174.1875 442.8125 C-176.40234375 443.33984375 -176.40234375 443.33984375 -179.1875 442.8125 C-181.42430635 440.60339909 -183.04264851 438.00294041 -184.75 435.375 C-185.8146984 433.80180864 -186.87981395 432.22889954 -187.9453125 430.65625 C-188.75403809 429.44388672 -188.75403809 429.44388672 -189.57910156 428.20703125 C-192.0334994 424.55300363 -194.57811101 420.96487254 -197.125 417.375 C-197.61758301 416.67624756 -198.11016602 415.97749512 -198.61767578 415.25756836 C-202.24318185 410.11879226 -205.92799423 405.0249652 -209.625 399.9375 C-214.64602089 393.02282839 -219.50012488 386.00833746 -224.29907227 378.93823242 C-229.1766229 371.77490598 -234.24055162 364.75535628 -239.3359375 357.74609375 C-241.48479715 354.78950179 -243.60348483 351.81532974 -245.6875 348.8125 C-248.98756594 344.06503672 -252.3665903 339.37572241 -255.75 334.6875 C-256.29269531 333.9346875 -256.83539062 333.181875 -257.39453125 332.40625 C-257.925625 331.67148437 -258.45671875 330.93671875 -259.00390625 330.1796875 C-259.52686279 329.45475098 -260.04981934 328.72981445 -260.58862305 327.98291016 C-261.67174864 326.51261141 -262.77833878 325.05936318 -263.90551758 323.62255859 C-264.44974365 322.92727051 -264.99396973 322.23198242 -265.5546875 321.515625 C-266.04694824 320.90106445 -266.53920898 320.28650391 -267.04638672 319.65332031 C-269.16293296 316.23895176 -268.75852228 313.74620902 -268.1875 309.8125 C-266.05407344 304.95946579 -263.21845485 300.75522129 -260.1875 296.4375 C-259.19781402 295.01309215 -258.20823363 293.58861092 -257.21875 292.1640625 C-256.46271484 291.0797998 -256.46271484 291.0797998 -255.69140625 289.97363281 C-253.34163216 286.59697693 -251.01519081 283.20439766 -248.6875 279.8125 C-247.77095783 278.47908108 -246.85429084 277.14574796 -245.9375 275.8125 C-245.48375 275.1525 -245.03 274.4925 -244.5625 273.8125 C-240.4375 267.8125 -240.4375 267.8125 -239.06347656 265.81396484 C-238.14349947 264.47578666 -237.22357791 263.13757029 -236.30371094 261.79931641 C-234.06313946 258.53979952 -231.82172307 255.28087199 -229.578125 252.0234375 C-224.99548446 245.3674742 -220.42862576 238.70130456 -215.8840332 232.01928711 C-209.87938402 223.19322314 -203.84085028 214.3918398 -197.75 205.625 C-196.79347534 204.24622681 -196.79347534 204.24622681 -195.81762695 202.83959961 C-194.58087662 201.06308863 -193.33856244 199.29043626 -192.09033203 197.52197266 C-190.73462181 195.59155541 -189.39915298 193.64685568 -188.07763672 191.69287109 C-187.38041504 190.68434082 -186.68319336 189.67581055 -185.96484375 188.63671875 C-185.33698975 187.71334717 -184.70913574 186.78997559 -184.06225586 185.83862305 C-183.44358643 185.17000244 -182.82491699 184.50138184 -182.1875 183.8125 C-180.8675 183.8125 -179.5475 183.8125 -178.1875 183.8125 C-176.32998747 187.52752505 -176.78914256 191.9670087 -176.625 196.0625 C-176.58181641 196.96613281 -176.53863281 197.86976563 -176.49414062 198.80078125 C-176.04109342 209.48694236 -176.1875 220.08828036 -176.1875 230.8125 C-135.5975 230.8125 -95.0075 230.8125 -53.1875 230.8125 C-55.01324112 226.55243738 -56.64767333 222.7881335 -58.90234375 218.8359375 C-59.41740479 217.9289209 -59.93246582 217.0219043 -60.46313477 216.08740234 C-61.01155029 215.13043457 -61.55996582 214.1734668 -62.125 213.1875 C-62.69984131 212.17768066 -63.27468262 211.16786133 -63.86694336 210.12744141 C-65.63683218 207.02037333 -67.41179773 203.91624851 -69.1875 200.8125 C-70.22159147 199.00013538 -71.25545686 197.18764174 -72.2890625 195.375 C-74.76111282 191.04221866 -77.23834733 186.71242395 -79.71679688 182.38330078 C-81.172526 179.83867468 -82.62576195 177.29264236 -84.078125 174.74609375 C-93.87610772 157.56962681 -103.68371969 140.39598754 -113.75 123.375 C-124.1875 105.69701474 -124.1875 105.69701474 -124.1875 102.8125 C-124.8475 102.8125 -125.5075 102.8125 -126.1875 102.8125 C-126.65800781 101.84828125 -127.12851562 100.8840625 -127.61328125 99.890625 C-128.24197179 98.61447704 -128.87089007 97.33844126 -129.5 96.0625 C-129.80873047 95.42828125 -130.11746094 94.7940625 -130.43554688 94.140625 C-131.76972879 91.44417312 -133.00787597 89.02069168 -134.98046875 86.734375 C-136.1875 84.8125 -136.1875 84.8125 -136.19140625 81.78125 C-134.89410191 77.94486363 -133.63609973 77.27390485 -130.125 75.3125 C-129.56844727 74.99265137 -129.01189453 74.67280273 -128.43847656 74.34326172 C-127.13327636 73.59425867 -125.82308771 72.85391243 -124.50927734 72.12011719 C-120.82986596 70.04788508 -117.19570199 67.8989745 -113.55322266 65.76269531 C-110.4182533 63.92622525 -107.27826387 62.09863269 -104.13671875 60.2734375 C-99.16600868 57.38405923 -94.20385488 54.4806686 -89.25 51.5625 C-88.5688916 51.1612793 -87.8877832 50.76005859 -87.18603516 50.34667969 C-85.84255523 49.55510712 -84.49912972 48.76344219 -83.15576172 47.97167969 C-81.21023594 46.82589001 -79.26353586 45.68212423 -77.31640625 44.5390625 C-70.87794537 40.75813514 -64.44520087 36.96818156 -58.02734375 33.15234375 C-45.32349502 25.60174155 -32.5900223 18.11421156 -19.76391602 10.77270508 C-14.70877933 7.87350082 -9.70608929 4.94467524 -4.83349609 1.74609375 C-3.1875 0.8125 -3.1875 0.8125 0 0 Z " fill="#FCFCFC" transform="translate(810.1875,432.1875)"/>
<path d="M0 0 C1.20127653 -0.00199105 2.40255306 -0.0039821 3.64023191 -0.00603348 C4.95637202 -0.00312064 6.27251213 -0.0002078 7.62853527 0.00279331 C9.04353247 0.00235721 10.45852959 0.00148157 11.87352628 0.00020415 C15.76157809 -0.00203309 19.64960239 0.00196996 23.5376507 0.00698221 C27.73051269 0.01129756 31.9233731 0.00983951 36.11623669 0.00907993 C43.38058687 0.00855539 50.64492808 0.01169496 57.90927601 0.01731777 C68.41232527 0.02544215 78.91537018 0.02804896 89.41842224 0.02930576 C106.4586111 0.0314948 123.49879518 0.0381509 140.53898144 0.04760838 C157.09269213 0.05678631 173.64640153 0.06386528 190.20011425 0.06811619 C191.22035312 0.06837891 192.24059199 0.06864164 193.29174719 0.06891232 C198.40994638 0.07021735 203.52814558 0.07148106 208.64634478 0.07272422 C251.11210654 0.08309224 293.57786308 0.10070655 336.04362011 0.12304783 C336.04362011 1.11304783 336.04362011 2.10304783 336.04362011 3.12304783 C221.53362011 3.12304783 107.02362011 3.12304783 -10.95637989 3.12304783 C-10.95637989 2.46304783 -10.95637989 1.80304783 -10.95637989 1.12304783 C-7.24034245 0.2632377 -3.81075322 -0.00139537 0 0 Z " fill="#377149" transform="translate(203.9563798904419,12.876952171325684)"/>
<path d="M0 0 C0.8146875 0.00257812 1.629375 0.00515625 2.46875 0.0078125 C3.2834375 0.00523438 4.098125 0.00265625 4.9375 0 C6.96875 0.1328125 6.96875 0.1328125 7.96875 1.1328125 C9.85574268 1.23044411 11.74644783 1.25652589 13.63596439 1.25586033 C14.87456087 1.25785138 16.11315735 1.25984243 17.38928705 1.26189381 C18.78158401 1.25904022 20.17388078 1.25609461 21.56617737 1.25306702 C23.03134474 1.25350259 24.49651204 1.25437724 25.96167892 1.25565618 C30.00698813 1.25790389 34.05227111 1.25387612 38.09757698 1.24887812 C42.45274665 1.24457773 46.80791474 1.24601975 51.16308594 1.2467804 C58.71507177 1.24730589 66.267049 1.24415641 73.81903267 1.23854256 C84.73806407 1.23043103 95.65709129 1.22781269 106.57612538 1.22655457 C124.28960352 1.2243635 142.00307708 1.21770193 159.71655273 1.20825195 C176.92814104 1.19907925 194.1397281 1.19199772 211.35131836 1.18774414 C212.41143907 1.18748142 213.47155977 1.18721869 214.56380535 1.18694801 C219.88188 1.18564301 225.19995466 1.1843793 230.51802933 1.18313611 C274.66827274 1.17276179 318.81851113 1.15514199 362.96875 1.1328125 C362.96875 1.7928125 362.96875 2.4528125 362.96875 3.1328125 C316.63135 3.17854691 270.29395238 3.2138098 223.95653427 3.23494316 C218.49136786 3.2374447 213.0262015 3.24003333 207.56103516 3.24267578 C206.472976 3.2432004 205.38491684 3.24372502 204.2638862 3.24426554 C186.62454626 3.25297846 168.98521931 3.26875329 151.34588708 3.28711809 C133.25889975 3.30579252 115.17191924 3.31692401 97.08492267 3.32098949 C85.91587995 3.32373966 74.7468739 3.3324393 63.57784246 3.34864543 C55.92854044 3.35918202 48.27925751 3.36242071 40.62994875 3.35981525 C36.21054427 3.35852875 31.79120408 3.36056056 27.37181091 3.37122345 C23.33158188 3.38090084 19.29146083 3.38148363 15.25122701 3.37461029 C13.78417339 3.37375983 12.31711325 3.37634348 10.85007264 3.38257886 C8.86658681 3.39052385 6.88306057 3.38511794 4.89956856 3.37890816 C3.24208932 3.38004732 3.24208932 3.38004732 1.55112565 3.38120949 C-1.03125 3.1328125 -1.03125 3.1328125 -3.03125 1.1328125 C-2.03125 0.1328125 -2.03125 0.1328125 0 0 Z " fill="#307145" transform="translate(177.03125,1063.8671875)"/>
<path d="M0 0 C2.33416193 3.5012429 2.24896438 4.86888493 2.24609566 9.00701427 C2.25007775 10.27049322 2.25405985 11.53397217 2.25816262 12.83573836 C2.25245614 14.24573284 2.24656494 15.65572658 2.24050903 17.0657196 C2.24138067 18.55736245 2.24313089 20.04900499 2.24568737 21.5406459 C2.25017305 25.64987494 2.24214052 29.75900033 2.23213124 33.86821616 C2.22351657 38.29560768 2.22641549 42.72299308 2.22793579 47.15039062 C2.2289859 54.82458068 2.22269615 62.4987368 2.21146011 70.17291832 C2.19522512 81.26857372 2.18999916 92.36421267 2.18748413 103.45987866 C2.18310388 121.46064782 2.16978583 139.46139888 2.15087891 157.4621582 C2.13252864 174.95108957 2.11836796 192.44001603 2.10986328 209.92895508 C2.10933783 211.00647231 2.10881239 212.08398954 2.10827102 213.19415881 C2.105661 218.5995966 2.10313357 224.00503443 2.10064721 229.41047227 C2.07990444 274.27366072 2.04466994 319.13682943 2 364 C1.34 364 0.68 364 0 364 C0.00037972 363.25132646 0.00075944 362.50265292 0.00115067 361.73129231 C0.02350495 317.40704338 0.04067451 273.08279507 0.05106533 228.75854165 C0.05231611 223.44229924 0.05361042 218.12605684 0.05493164 212.80981445 C0.05532511 211.22219147 0.05532511 211.22219147 0.05572652 209.60249531 C0.06008365 192.44100789 0.06797142 175.2795238 0.0771528 158.11803836 C0.08648816 140.52261066 0.09205536 122.92718471 0.09408849 105.33175462 C0.09546397 94.46520911 0.09981586 83.59867302 0.10791647 72.7321304 C0.11318248 65.29121764 0.11480463 57.85030978 0.11350138 50.40939528 C0.11285777 46.10962416 0.11387806 41.80986955 0.11920547 37.51010132 C0.12403917 33.58035874 0.12433885 29.65064392 0.12089889 25.72090011 C0.12047317 24.29289659 0.12176916 22.8648914 0.12488318 21.43689121 C0.12884679 19.50846379 0.12615653 17.58002601 0.12304783 15.65159702 C0.12342755 14.57660877 0.12380727 13.50162051 0.1241985 12.39405686 C0.27031041 10.04713599 0.27031041 10.04713599 -1 9 C-0.91062197 7.47480724 -0.75462854 5.95318071 -0.5625 4.4375 C-0.46066406 3.61121094 -0.35882812 2.78492188 -0.25390625 1.93359375 C-0.17011719 1.29550781 -0.08632812 0.65742188 0 0 Z " fill="#357C4A" transform="translate(1065,176)"/>
<path d="M0 0 C2.25954223 3.38931335 2.25201589 4.53849224 2.25891972 8.51056004 C2.26919291 10.23977517 2.26919291 10.23977517 2.27967364 12.00392395 C2.27705678 13.27626812 2.27443993 14.54861228 2.27174377 15.85951233 C2.27602853 17.22028644 2.28119099 18.58105803 2.28715843 19.94182581 C2.3010583 23.68968222 2.30251403 27.43745761 2.30201519 31.18533599 C2.30364913 35.22438542 2.31676961 39.26339892 2.32855225 43.3024292 C2.34744252 50.3054141 2.35913656 57.30838152 2.36609077 64.31138802 C2.37625288 74.44751094 2.39831216 84.58358103 2.42347669 94.71967655 C2.46410469 111.1782596 2.49655076 127.6368477 2.52319336 144.09545898 C2.52479066 145.08103286 2.52638796 146.06660675 2.52803367 147.0820465 C2.53043202 148.56221084 2.53043202 148.56221084 2.53287882 150.07227749 C2.55554064 164.04550378 2.58017488 178.01872475 2.60717773 191.99194336 C2.61002195 193.46532336 2.61002195 193.46532336 2.61292363 194.96846861 C2.64472094 211.35605926 2.68047751 227.74363994 2.71821922 244.1312179 C2.74123951 254.23863742 2.76020061 264.34605017 2.77388596 274.45348673 C2.78342806 281.38424073 2.79627448 288.31498331 2.81169481 295.24572671 C2.82044391 299.24283906 2.82755489 303.23993732 2.83033562 307.23705864 C2.83289925 310.90070006 2.84000195 314.56430438 2.85060786 318.22793107 C2.85505745 320.1719067 2.85466706 322.11589158 2.85406977 324.05987221 C2.87587296 330.08030488 3.07002891 335.98412692 3.77680248 341.96548933 C4.07586809 344.69155982 4.09763096 347.38478503 4.0625 350.125 C4.04896484 351.52105469 4.04896484 351.52105469 4.03515625 352.9453125 C4.02355469 353.62335938 4.01195312 354.30140625 4 355 C-1.44573767 349.55426233 -0.23439944 337.75699955 -0.25816262 330.52599216 C-0.25233693 329.23413288 -0.24651125 327.94227361 -0.24050903 326.61126709 C-0.24138309 325.19435272 -0.24313774 323.77743867 -0.24568737 322.36052632 C-0.25012561 318.49965962 -0.24220619 314.63890544 -0.23213124 310.77805305 C-0.22344779 306.60235606 -0.22642035 302.42666479 -0.22793579 298.2509613 C-0.22898156 291.02710227 -0.22273725 283.80327953 -0.21146011 276.57942963 C-0.19516618 266.13511991 -0.18999313 255.69082765 -0.18748413 245.2465066 C-0.18311312 228.29893067 -0.16982018 211.35137405 -0.15087891 194.40380859 C-0.1325047 177.9464528 -0.11835574 161.48910227 -0.10986328 145.03173828 C-0.10933783 144.01632547 -0.10881239 143.00091266 -0.10827102 141.95472977 C-0.10566083 136.86040911 -0.10313344 131.76608843 -0.10064721 126.67176771 C-0.07993323 84.44783171 -0.04472392 42.22391696 0 0 Z " fill="#2F7043" transform="translate(13,562)"/>
<path d="M0 0 C2.475 0.495 2.475 0.495 5 1 C5.02964176 21.06519723 4.9639401 41.12738807 4.79807091 61.192065 C4.76914185 64.72463961 4.74165557 68.2572255 4.71398926 71.78981018 C4.66184058 78.4221965 4.60847187 85.05457236 4.5546174 91.68694502 C4.49317238 99.26187722 4.43315967 106.83682057 4.37324238 114.41176498 C4.25037489 129.94118921 4.1257896 145.47059914 4 161 C3.67 161 3.34 161 3 161 C2.99668985 160.18847568 2.99337971 159.37695135 2.98996925 158.54083538 C2.90881492 138.81166536 2.81674746 119.08257274 2.71247292 99.35351086 C2.6623112 89.81275734 2.61586874 80.27201257 2.578125 70.73120117 C2.54522536 62.4172445 2.50540547 54.103355 2.45720994 45.7894724 C2.43192472 41.38569978 2.41014946 36.98197183 2.39665604 32.57814598 C2.38385398 28.43560195 2.36181981 24.293211 2.33261681 20.15075111 C2.32352647 18.62816138 2.31784741 17.10554699 2.31578636 15.58293152 C2.31247403 13.50813077 2.29702527 11.43376674 2.2784729 9.35905457 C2.27294214 8.19667361 2.26741138 7.03429266 2.26171303 5.83668804 C2.20815873 2.7966646 2.20815873 2.7966646 0 0 Z " fill="#477A59" transform="translate(498,665)"/>
<path d="M0 0 C1.52022766 0.24114784 1.52022766 0.24114784 3.07116699 0.48716736 C9.6412242 1.30115987 16.25133505 1.17840534 22.86132812 1.20532227 C24.3600287 1.21491457 25.85872665 1.22492542 27.35742188 1.23532104 C31.40638887 1.26222974 35.45536736 1.28331479 39.50437355 1.30332303 C43.74313039 1.32526973 47.98185239 1.35261572 52.22058105 1.37937927 C60.23847051 1.42918921 68.25637943 1.47417119 76.27430677 1.51740164 C85.40614325 1.56687432 94.53794475 1.62175509 103.66974735 1.67708123 C122.44646572 1.79072157 141.22321714 1.89759932 160 2 C160 2.33 160 2.66 160 3 C106.87 3 53.74 3 -1 3 C-0.67 2.01 -0.34 1.02 0 0 Z " fill="#6F907B" transform="translate(338,827)"/>
<path d="M0 0 C3.72433382 1.2125738 7.37802806 2.50859979 11 4 C11 4.66 11 5.32 11 6 C11.66 6.12375 12.32 6.2475 13 6.375 C16.04665379 7.00971954 19.03253894 7.78308482 22.03515625 8.59765625 C24.31884514 9.13373911 24.31884514 9.13373911 28 9 C28.43957031 9.44988281 28.87914062 9.89976563 29.33203125 10.36328125 C31.77762133 12.76305232 34.42380408 13.25039919 37.6875 14.1875 C39.45673828 14.70376953 39.45673828 14.70376953 41.26171875 15.23046875 C42.16535156 15.48441406 43.06898438 15.73835938 44 16 C44 16.33 44 16.66 44 17 C28.83048012 17.24354734 13.31835818 9.63487552 0 3 C0 2.01 0 1.02 0 0 Z " fill="#316645" transform="translate(113,1045)"/>
<path d="M0 0 C1.02867187 0.15847412 2.05734375 0.31694824 3.1171875 0.48022461 C9.43029433 1.26478299 15.77163653 1.23428737 22.125 1.31640625 C23.48120702 1.33701574 24.8374082 1.35801314 26.19360352 1.37937927 C29.73788679 1.43418803 33.28222399 1.48377632 36.82659912 1.53222656 C40.45345781 1.58274531 44.08023959 1.63827171 47.70703125 1.69335938 C54.80462061 1.80043585 61.90227918 1.90198978 69 2 C69 2.33 69 2.66 69 3 C45.9 3 22.8 3 -1 3 C-0.67 2.01 -0.34 1.02 0 0 Z " fill="#89A693" transform="translate(338,827)"/>
<path d="M0 0 C11.52145501 -0.21242223 22.66626904 -0.35506098 34 2 C33.67 2.66 33.34 3.32 33 4 C30.08302989 3.85895309 27.1665198 3.71235186 24.25 3.5625 C23.0125 3.50352539 23.0125 3.50352539 21.75 3.44335938 C20.55117188 3.38051758 20.55117188 3.38051758 19.328125 3.31640625 C18.5949707 3.27974854 17.86181641 3.24309082 17.10644531 3.20532227 C14.98434565 2.99847412 13.05902871 2.54062703 11 2 C9.08639029 1.78351622 7.16916379 1.59743032 5.25 1.4375 C4.26515625 1.35371094 3.2803125 1.26992187 2.265625 1.18359375 C1.14414062 1.09271484 1.14414062 1.09271484 0 1 C0 0.67 0 0.34 0 0 Z " fill="#337146" transform="translate(874,13)"/>
<path d="M0 0 C8.60877175 3.96244868 16.06524171 10.64148237 23 17 C22.01 17.33 21.02 17.66 20 18 C18.37890625 16.8828125 18.37890625 16.8828125 16.5625 15.125 C12.1015991 10.98094813 7.27764791 7.46573445 2.34375 3.91796875 C1.5703125 3.28503906 0.796875 2.65210938 0 2 C0 1.34 0 0.68 0 0 Z " fill="#35734C" transform="translate(983,44)"/>
<path d="M0 0 C2.475 0.495 2.475 0.495 5 1 C5 11.23 5 21.46 5 32 C4.34 32 3.68 32 3 32 C2.98018066 31.13721436 2.96036133 30.27442871 2.93994141 29.38549805 C2.86180356 26.18163044 2.77510918 22.97814106 2.68261719 19.7746582 C2.6443565 18.38868093 2.60949844 17.00260535 2.578125 15.61645508 C2.53241301 13.6229836 2.47341075 11.62983086 2.4140625 9.63671875 C2.3826416 8.43748779 2.3512207 7.23825684 2.31884766 6.00268555 C2.21570506 2.82117294 2.21570506 2.82117294 0 0 Z " fill="#336C47" transform="translate(498,665)"/>
<path d="M0 0 C0.33 0.66 0.66 1.32 1 2 C0.38125 2.886875 -0.2375 3.77375 -0.875 4.6875 C-3.02019256 7.76678708 -3.02019256 7.76678708 -3.9375 10.5625 C-5.32419073 13.74373167 -7.56541421 15.56541421 -10 18 C-10 18.99 -10 19.98 -10 21 C-12 22.6875 -12 22.6875 -14 24 C-14.66 23.67 -15.32 23.34 -16 23 C-13.89731966 19.91565065 -11.7925957 16.83270125 -9.6875 13.75 C-9.09259766 12.87730469 -8.49769531 12.00460937 -7.88476562 11.10546875 C-7.30791016 10.26113281 -6.73105469 9.41679688 -6.13671875 8.546875 C-5.60780029 7.77182617 -5.07888184 6.99677734 -4.53393555 6.19824219 C-3.06683912 4.09578537 -1.5510963 2.04102318 0 0 Z " fill="#D6E6DA" transform="translate(607,646)"/>
<path d="M0 0 C-1.32 0.33 -2.64 0.66 -4 1 C-4 1.99 -4 2.98 -4 4 C-5.258125 4.020625 -6.51625 4.04125 -7.8125 4.0625 C-8.52019531 4.07410156 -9.22789062 4.08570313 -9.95703125 4.09765625 C-12 4 -12 4 -15 3 C-14.34 5.31 -13.68 7.62 -13 10 C-15.475 9.01 -15.475 9.01 -18 8 C-17.8125 5.625 -17.8125 5.625 -17 3 C-11.97962429 0.04683782 -5.71475311 -0.17317434 0 0 Z " fill="#DAE9DF" transform="translate(221,454)"/>
<path d="M0 0 C0.99 0.33 1.98 0.66 3 1 C2.04270084 2.12588014 1.08412105 3.2506715 0.125 4.375 C-0.40867187 5.00148438 -0.94234375 5.62796875 -1.4921875 6.2734375 C-2.61432007 7.55836651 -3.79371975 8.79371975 -5 10 C-5.99 10 -6.98 10 -8 10 C-8.103125 10.639375 -8.20625 11.27875 -8.3125 11.9375 C-8.539375 12.618125 -8.76625 13.29875 -9 14 C-9.99 14.33 -10.98 14.66 -12 15 C-11.58685438 10.55073948 -8.49538473 8.15899896 -5.4375 5.25 C-4.91736328 4.74339844 -4.39722656 4.23679687 -3.86132812 3.71484375 C-2.58089916 2.46965595 -1.29132446 1.23388498 0 0 Z " fill="#2B6F44" transform="translate(78,57)"/>
<path d="M0 0 C0.66 0 1.32 0 2 0 C4.97113502 5.94227005 2.6113523 13.91426763 1 20 C0.67 20 0.34 20 0 20 C-1.18225237 13.16920852 -0.74464946 6.87368733 0 0 Z " fill="#326C49" transform="translate(1064,896)"/>
<path d="M0 0 C0.66 0.66 1.32 1.32 2 2 C-6.25 2 -14.5 2 -23 2 C-23 1.67 -23 1.34 -23 1 C-22.16855469 0.93941406 -21.33710938 0.87882812 -20.48046875 0.81640625 C-18.85044922 0.69072266 -18.85044922 0.69072266 -17.1875 0.5625 C-16.10855469 0.48128906 -15.02960938 0.40007812 -13.91796875 0.31640625 C-4.21418919 -0.73581081 -4.21418919 -0.73581081 0 0 Z " fill="#CCDFD2" transform="translate(365,432)"/>
<path d="M0 0 C3.09423168 3.09423168 3.93706005 6.5523812 4.125 10.875 C4.08375 11.57625 4.0425 12.2775 4 13 C2.35 13.33 0.7 13.66 -1 14 C-1.33 13.34 -1.66 12.68 -2 12 C-1.34 11.67 -0.68 11.34 0 11 C0 7.37 0 3.74 0 0 Z " fill="#CADCD0" transform="translate(428,570)"/>
<path d="M0 0 C0.66 0 1.32 0 2 0 C1.95875 0.86625 1.9175 1.7325 1.875 2.625 C2.00457721 6.12358468 2.76019656 8.74551597 4 12 C3.01 12.495 3.01 12.495 2 13 C-2.048 7.848 -2.048 7.848 -1.8125 3.6875 C-1 1 -1 1 0 0 Z " fill="#DBE9DE" transform="translate(676,510)"/>
<path d="M0 0 C0 0.33 0 0.66 0 1 C-1.65 1 -3.3 1 -5 1 C-5 1.66 -5 2.32 -5 3 C-6.93719378 3.05406122 -8.87481921 3.09282025 -10.8125 3.125 C-11.89144531 3.14820313 -12.97039062 3.17140625 -14.08203125 3.1953125 C-17 3 -17 3 -20 1 C-13.31184516 0.37577221 -6.71884955 -0.12920865 0 0 Z " fill="#217133" transform="translate(198,13)"/>
<path d="M0 0 C0.74362793 0.01047363 1.48725586 0.02094727 2.25341797 0.03173828 C3.46191406 0.04140625 3.46191406 0.04140625 4.69482422 0.05126953 C5.95746094 0.07640625 5.95746094 0.07640625 7.24560547 0.10205078 C8.51984375 0.11558594 8.51984375 0.11558594 9.81982422 0.12939453 C11.9202043 0.15299431 14.02043991 0.18886595 16.12060547 0.22705078 C15.79060547 0.88705078 15.46060547 1.54705078 15.12060547 2.22705078 C13.13492839 2.1944987 11.1492513 2.16194661 9.16357422 2.12939453 C6.91755085 2.14441861 6.91755085 2.14441861 4.12060547 3.22705078 C2.07763672 3.10595703 2.07763672 3.10595703 -0.06689453 2.78955078 C-1.32501953 2.60392578 -2.58314453 2.41830078 -3.87939453 2.22705078 C-1.87939453 0.22705078 -1.87939453 0.22705078 0 0 Z " fill="#307144" transform="translate(776.87939453125,12.77294921875)"/>
<path d="M0 0 C0.33 0.66 0.66 1.32 1 2 C1.66 2 2.32 2 3 2 C3 2.66 3 3.32 3 4 C3.66 4 4.32 4 5 4 C5 4.99 5 5.98 5 7 C5.66 7 6.32 7 7 7 C9.29648649 9.5614657 10 10.47967572 10 14 C6.25719257 12.75239752 5.52850153 11.3305368 3.3125 8.125 C2.37857422 6.79855469 2.37857422 6.79855469 1.42578125 5.4453125 C0 3 0 3 0 0 Z " fill="#3A704D" transform="translate(45,985)"/>
<path d="M0 0 C0.99 0.33 1.98 0.66 3 1 C0.61820737 4.74281699 -1.74475735 7.97727468 -5 11 C-6 9 -6 9 -5.0625 5.875 C-4.711875 4.92625 -4.36125 3.9775 -4 3 C-3.01 3 -2.02 3 -1 3 C-0.67 2.01 -0.34 1.02 0 0 Z " fill="#336B45" transform="translate(1034,984)"/>
<path d="M0 0 C0.66 0.33 1.32 0.66 2 1 C1.40458546 2.75299712 0.79828086 4.50229748 0.1875 6.25 C-0.14894531 7.22453125 -0.48539063 8.1990625 -0.83203125 9.203125 C-1.94132042 11.85948302 -3.1693283 13.79689939 -5 16 C-4.55643705 9.79011871 -3.08467498 5.39459439 0 0 Z " fill="#327B43" transform="translate(29,123)"/>
<path d="M0 0 C-2.24179377 1.36965208 -4.49172338 2.72052808 -6.75 4.0625 C-7.38421875 4.45244141 -8.0184375 4.84238281 -8.671875 5.24414062 C-13.50498766 8.08862881 -13.50498766 8.08862881 -16.21582031 7.60327148 C-16.80459961 7.40419189 -17.39337891 7.2051123 -18 7 C-15.56876731 5.63336613 -13.13113837 4.2816133 -10.6875 2.9375 C-9.99720703 2.54755859 -9.30691406 2.15761719 -8.59570312 1.75585938 C-3.33984375 -1.11328125 -3.33984375 -1.11328125 0 0 Z " fill="#2F803F" transform="translate(118,34)"/>
<path d="M0 0 C3.63 0 7.26 0 11 0 C11 0.66 11 1.32 11 2 C8.47524538 3.26237731 6.68799534 3.09856404 3.875 3.0625 C2.96492187 3.05347656 2.05484375 3.04445313 1.1171875 3.03515625 C0.41851563 3.02355469 -0.28015625 3.01195312 -1 3 C-0.67 2.01 -0.34 1.02 0 0 Z " fill="#366947" transform="translate(897,1064)"/>
<path d="M0 0 C0.66 0 1.32 0 2 0 C4.07626313 4.62440425 5.70022952 9.1008651 7 14 C6.34 14 5.68 14 5 14 C4.15675328 12.421924 3.32576082 10.8372958 2.5 9.25 C2.0359375 8.36828125 1.571875 7.4865625 1.09375 6.578125 C0 4 0 4 0 0 Z " fill="#346E49" transform="translate(29,956)"/>
<path d="M0 0 C0.33 0 0.66 0 1 0 C1.02888146 3.31248187 1.04675799 6.62493167 1.0625 9.9375 C1.07087891 10.88302734 1.07925781 11.82855469 1.08789062 12.80273438 C1.09111328 13.70185547 1.09433594 14.60097656 1.09765625 15.52734375 C1.10289307 16.35999756 1.10812988 17.19265137 1.11352539 18.05053711 C1 20 1 20 0 21 C-1.66617115 21.04063832 -3.33388095 21.042721 -5 21 C-4.505 19.515 -4.505 19.515 -4 18 C-2.68 18.33 -1.36 18.66 0 19 C0 12.73 0 6.46 0 0 Z " fill="#DCE7DC" transform="translate(636,854)"/>
<path d="M0 0 C0.70703125 1.73828125 0.70703125 1.73828125 1 4 C-0.36328125 6.10546875 -0.36328125 6.10546875 -2.3125 8.1875 C-3.26576172 9.22970703 -3.26576172 9.22970703 -4.23828125 10.29296875 C-6 12 -6 12 -8 13 C-6.40956621 7.91061189 -3.2553049 4.12543357 0 0 Z " fill="#DEEBE1" transform="translate(559,716)"/>
<path d="M0 0 C0.99 0.99 1.98 1.98 3 3 C2.67 3.99 2.34 4.98 2 6 C1.0409375 6.2165625 1.0409375 6.2165625 0.0625 6.4375 C-2.20311706 6.80104993 -2.20311706 6.80104993 -3.25 9.0625 C-3.4975 9.701875 -3.745 10.34125 -4 11 C-4 7.80389448 -3.45328458 6.58282374 -2 3.8125 C-1.62875 3.09707031 -1.2575 2.38164062 -0.875 1.64453125 C-0.441875 0.83048828 -0.441875 0.83048828 0 0 Z " fill="#467957" transform="translate(747,378)"/>
<path d="M0 0 C1.58560393 0.25720674 3.16845924 0.53138799 4.75 0.8125 C5.63171875 0.96332031 6.5134375 1.11414063 7.421875 1.26953125 C10.1910911 2.05414248 11.8259401 3.14595359 14 5 C12 6 12 6 9.43359375 5.29296875 C8.44488281 4.92816406 7.45617187 4.56335938 6.4375 4.1875 C5.44621094 3.83042969 4.45492187 3.47335938 3.43359375 3.10546875 C1 2 1 2 0 0 Z " fill="#357248" transform="translate(941,24)"/>
<path d="M0 0 C1.32 0 2.64 0 4 0 C4 0.99 4 1.98 4 3 C2.56879256 3.55808089 1.12969645 4.09596462 -0.3125 4.625 C-1.11300781 4.92664062 -1.91351562 5.22828125 -2.73828125 5.5390625 C-3.48464844 5.69117188 -4.23101563 5.84328125 -5 6 C-5.99 5.34 -6.98 4.68 -8 4 C-6.865625 3.525625 -5.73125 3.05125 -4.5625 2.5625 C-1.24259834 1.36377917 -1.24259834 1.36377917 0 0 Z " fill="#356141" transform="translate(948,1052)"/>
<path d="M0 0 C0 0.66 0 1.32 0 2 C-1.6396875 2.8971875 -1.6396875 2.8971875 -3.3125 3.8125 C-5.45240788 5.0175383 -6.94469581 5.94044164 -8.625 7.75 C-10 9 -10 9 -12.6875 9.1875 C-13.450625 9.125625 -14.21375 9.06375 -15 9 C-12.59888822 6.36115438 -9.99444972 4.63586471 -6.9375 2.8125 C-5.62072266 2.01779297 -5.62072266 2.01779297 -4.27734375 1.20703125 C-2 0 -2 0 0 0 Z " fill="#D8E7DB" transform="translate(717,487)"/>
<path d="M0 0 C0.66 0 1.32 0 2 0 C2.2396943 5.63281599 1.38529821 10.54538831 0 16 C-0.33 16 -0.66 16 -1 16 C-1.02701408 13.89590361 -1.04640223 11.79170822 -1.0625 9.6875 C-1.07410156 8.51574219 -1.08570313 7.34398437 -1.09765625 6.13671875 C-1 3 -1 3 0 0 Z " fill="#327247" transform="translate(15,171)"/>
<path d="M0 0 C5.8022175 -0.36263859 9.63999211 0.74315457 15 3 C15 3.33 15 3.66 15 4 C13.24929483 3.88529863 11.49942464 3.75780972 9.75 3.625 C8.77546875 3.55539062 7.8009375 3.48578125 6.796875 3.4140625 C4.10366811 3.01534751 2.33036721 2.36492937 0 1 C0 0.67 0 0.34 0 0 Z " fill="#386E4E" transform="translate(142,1058)"/>
<path d="M0 0 C2.04190981 0.14238837 4.08352045 0.28907028 6.125 0.4375 C7.83042969 0.55931641 7.83042969 0.55931641 9.5703125 0.68359375 C12.7540478 0.97730965 15.85510907 1.43124313 19 2 C19 2.33 19 2.66 19 3 C13.72 3 8.44 3 3 3 C3 2.34 3 1.68 3 1 C2.01 0.67 1.02 0.34 0 0 Z " fill="#567C63" transform="translate(688,435)"/>
<path d="M0 0 C2.9719385 1.12451727 5.33440687 2.22293791 8 4 C8 4.66 8 5.32 8 6 C8.99 6.33 9.98 6.66 11 7 C10.67 7.66 10.34 8.32 10 9 C8.3278148 7.88321917 6.66237197 6.75633648 5 5.625 C3.6078125 4.68527344 3.6078125 4.68527344 2.1875 3.7265625 C1.465625 3.15679688 0.74375 2.58703125 0 2 C0 1.34 0 0.68 0 0 Z " fill="#3E714C" transform="translate(88,1030)"/>
<path d="M0 0 C2.475 0.495 2.475 0.495 5 1 C5.08159574 5.16138263 4.98248524 8.9472484 4 13 C3.67 13 3.34 13 3 13 C2.92652344 11.96939453 2.92652344 11.96939453 2.8515625 10.91796875 C2.77679688 10.01691406 2.70203125 9.11585938 2.625 8.1875 C2.55539062 7.29417969 2.48578125 6.40085937 2.4140625 5.48046875 C2.13354964 2.75601501 2.13354964 2.75601501 0 0 Z " fill="#3E6F4D" transform="translate(498,665)"/>
<path d="M0 0 C1.09570312 0.00902344 2.19140625 0.01804687 3.3203125 0.02734375 C4.16335938 0.03894531 5.00640625 0.05054688 5.875 0.0625 C5.875 0.3925 5.875 0.7225 5.875 1.0625 C-5.64664009 3.35862756 -5.64664009 3.35862756 -11.125 3.0625 C-6.92562487 0.26291658 -5.02794562 -0.05348878 0 0 Z " fill="#6B9179" transform="translate(316.125,436.9375)"/>
<path d="M0 0 C3.39460785 1.37928277 4.72525168 2.64656429 6.3125 5.9375 C6.65925781 6.62714844 7.00601562 7.31679687 7.36328125 8.02734375 C8 10 8 10 7 13 C5.83072457 11.02237345 4.66464427 9.04285742 3.5 7.0625 C2.8503125 5.96035156 2.200625 4.85820313 1.53125 3.72265625 C0 1 0 1 0 0 Z " fill="#37734A" transform="translate(1037,100)"/>
<path d="M0 0 C-2.64738916 1.4606285 -3.89448334 2 -7 2 C-7.66 2.66 -8.32 3.32 -9 4 C-10.32 4 -11.64 4 -13 4 C-12.67 3.01 -12.34 2.02 -12 1 C-10.29296875 0.234375 -10.29296875 0.234375 -8.1875 -0.25 C-7.50042969 -0.42015625 -6.81335938 -0.5903125 -6.10546875 -0.765625 C-3.80500179 -1.02170666 -2.19370273 -0.69015367 0 0 Z " fill="#E5ECE5" transform="translate(251,450)"/>
<path d="M0 0 C0.33 0 0.66 0 1 0 C1.36923077 5.41538462 1.36923077 5.41538462 -0.5 8.375 C-0.995 8.91125 -1.49 9.4475 -2 10 C-2.99 9.67 -3.98 9.34 -5 9 C-3.35 6.03 -1.7 3.06 0 0 Z " fill="#457154" transform="translate(526,316)"/>
<path d="M0 0 C0.33 0.66 0.66 1.32 1 2 C-3.12168689 3.62950412 -5.70700357 4.26264601 -10 3 C-10 2.34 -10 1.68 -10 1 C-6.7 0.67 -3.4 0.34 0 0 Z " fill="#32694B" transform="translate(927,1060)"/>
<path d="M0 0 C-1.12451727 2.9719385 -2.22293791 5.33440687 -4 8 C-4.99 8 -5.98 8 -7 8 C-4.18918919 0 -4.18918919 0 0 0 Z " fill="#305B3E" transform="translate(1042,976)"/>
<path d="M0 0 C1.258125 0.12375 2.51625 0.2475 3.8125 0.375 C4.87404297 0.47941406 4.87404297 0.47941406 5.95703125 0.5859375 C8 1 8 1 11 3 C7.04 3 3.08 3 -1 3 C-0.67 2.01 -0.34 1.02 0 0 Z " fill="#5C8569" transform="translate(338,827)"/>
<path d="M0 0 C0.66 0.99 1.32 1.98 2 3 C0.68 5.31 -0.64 7.62 -2 10 C-2.66 9.67 -3.32 9.34 -4 9 C-2.94124926 5.59687262 -1.99097846 2.98646769 0 0 Z " fill="#467656" transform="translate(819,766)"/>
<path d="M0 0 C0.33 0 0.66 0 1 0 C2.59138085 4.17737474 3.21278058 7.53160785 3 12 C0.35534962 8.8745041 -0.84414715 5.91211733 -2 2 C-1.34 1.34 -0.68 0.68 0 0 Z " fill="#427050" transform="translate(390,477)"/>
<path d="M0 0 C2.0625 0.4375 2.0625 0.4375 4 1 C3.01 1 2.02 1 1 1 C1.66 3.31 2.32 5.62 3 8 C0.525 7.01 0.525 7.01 -2 6 C-1.125 1.125 -1.125 1.125 0 0 Z " fill="#D3E5D9" transform="translate(205,456)"/>
<path d="M0 0 C1.98 0 3.96 0 6 0 C6.33 0.66 6.66 1.32 7 2 C7.99 2.33 8.98 2.66 10 3 C10 3.99 10 4.98 10 6 C6.40992874 4.66654496 3.20429093 3.1056769 0 1 C0 0.67 0 0.34 0 0 Z " fill="#DCE8E0" transform="translate(395,401)"/>
<path d="M0 0 C0.66 0.33 1.32 0.66 2 1 C0.02 4.63 -1.96 8.26 -4 12 C-4.33 12 -4.66 12 -5 12 C-5.3636198 7.75776898 -4.5393228 5.41831915 -2 2 C-1.34 2 -0.68 2 0 2 C0 1.34 0 0.68 0 0 Z " fill="#E5F3E9" transform="translate(482,391)"/>
<path d="M0 0 C0.66 0 1.32 0 2 0 C0.54955729 4.10958767 -1.51110752 7.43258745 -4 11 C-4.66 10.67 -5.32 10.34 -6 10 C-4.34643078 6.41726669 -2.32019297 3.19026533 0 0 Z " fill="#2F7244" transform="translate(50,87)"/>
<path d="M0 0 C2.31 0 4.62 0 7 0 C7.33 0.66 7.66 1.32 8 2 C10.02463255 2.65213292 10.02463255 2.65213292 12 3 C12 3.66 12 4.32 12 5 C10.37276701 4.54965877 8.74826336 4.08944646 7.125 3.625 C5.76761719 3.24214844 5.76761719 3.24214844 4.3828125 2.8515625 C2 2 2 2 0 0 Z " fill="#CADCCD" transform="translate(317,820)"/>
<path d="M0 0 C2.0625 0.4375 2.0625 0.4375 4 1 C4 3.31 4 5.62 4 8 C3.01 8.495 3.01 8.495 2 9 C1.01 6.36 0.02 3.72 -1 1 C-0.67 0.67 -0.34 0.34 0 0 Z " fill="#326944" transform="translate(888,564)"/>
<path d="M0 0 C0.66 0.66 1.32 1.32 2 2 C4.06874034 2.6425235 4.06874034 2.6425235 6 3 C6.33 4.32 6.66 5.64 7 7 C2.49197399 5.74194623 -0.4912812 4.09592835 -4 1 C-2.125 0.375 -2.125 0.375 0 0 Z " fill="#DCE7DC" transform="translate(228,472)"/>
<path d="M0 0 C-4.30769231 3.93846154 -4.30769231 3.93846154 -7.8125 4.25 C-8.8953125 4.12625 -8.8953125 4.12625 -10 4 C-10.33 3.01 -10.66 2.02 -11 1 C-7.27569643 0.30710631 -3.78916254 -0.11144596 0 0 Z " fill="#D4E2DA" transform="translate(299,441)"/>
<path d="M0 0 C0.33 0 0.66 0 1 0 C1.125 5.75 1.125 5.75 0 8 C-2.0625 8.625 -2.0625 8.625 -4 9 C-2.94124926 5.59687262 -1.99097846 2.98646769 0 0 Z " fill="#D9E8DE" transform="translate(321,342)"/>
<path d="M0 0 C0.99 0.33 1.98 0.66 3 1 C1.54744301 4.82946843 -0.42895561 6.12050295 -4 8 C-2.87548273 5.0280615 -1.77706209 2.66559313 0 0 Z " fill="#457154" transform="translate(541,290)"/>
<path d="M0 0 C2.4294516 3.6441774 2.16179575 5.71241272 2 10 C1.01 9.67 0.02 9.34 -1 9 C-0.67 6.03 -0.34 3.06 0 0 Z " fill="#307442" transform="translate(1065,176)"/>
<path d="M0 0 C3.26460973 1.80412643 4.88929795 2.83394693 7 6 C6.625 8.1875 6.625 8.1875 6 10 C5.896875 9.360625 5.79375 8.72125 5.6875 8.0625 C5.3471875 7.0415625 5.3471875 7.0415625 5 6 C4.01 5.67 3.02 5.34 2 5 C0.8125 2.4375 0.8125 2.4375 0 0 Z " fill="#36714B" transform="translate(1028,87)"/>
<path d="M0 0 C0.99 0 1.98 0 3 0 C1.63016497 3.16115776 1.0109362 3.9927092 -2 6 C-2.99 6 -3.98 6 -5 6 C-5 5.34 -5 4.68 -5 4 C-4.0409375 3.8453125 -4.0409375 3.8453125 -3.0625 3.6875 C-2.381875 3.460625 -1.70125 3.23375 -1 3 C-0.67 2.01 -0.34 1.02 0 0 Z " fill="#366646" transform="translate(1002,1020)"/>
<path d="M0 0 C2.31 0.33 4.62 0.66 7 1 C7.33 1.99 7.66 2.98 8 4 C4.7 3.67 1.4 3.34 -2 3 C-1.34 2.01 -0.68 1.02 0 0 Z " fill="#E8F2EA" transform="translate(680,431)"/>
<path d="M0 0 C1.1875 1.6875 1.1875 1.6875 2 4 C0.8125 6.75 0.8125 6.75 -1 9 C-1.99 9 -2.98 9 -4 9 C-2.80100302 5.9168649 -1.52299523 2.93720508 0 0 Z " fill="#507C5C" transform="translate(470,415)"/>
<path d="M0 0 C0.66 0.99 1.32 1.98 2 3 C1.2884375 3.61875 1.2884375 3.61875 0.5625 4.25 C-1.15290139 5.87962522 -1.15290139 5.87962522 -1.4375 8.0625 C-2 10 -2 10 -4.0625 11.25 C-4.701875 11.4975 -5.34125 11.745 -6 12 C-4.43358249 7.69235185 -2.31663844 3.93828536 0 0 Z " fill="#CDE2D4" transform="translate(350,290)"/>
<path d="M0 0 C0.66 0.99 1.32 1.98 2 3 C0.35 5.97 -1.3 8.94 -3 12 C-3.33 12 -3.66 12 -4 12 C-4.61528766 6.92387682 -2.61658349 4.17017994 0 0 Z " fill="#3C684B" transform="translate(383,227)"/>
<path d="M0 0 C0.33 0 0.66 0 1 0 C0.88541307 1.43836751 0.75790884 2.87570966 0.625 4.3125 C0.55539063 5.11300781 0.48578125 5.91351563 0.4140625 6.73828125 C0 9 0 9 -2 12 C-2.28571429 3.42857143 -2.28571429 3.42857143 0 0 Z " fill="#2F7B4C" transform="translate(21,145)"/>
<path d="M0 0 C0.33 0 0.66 0 1 0 C1.36666667 5.5 1.36666667 5.5 -0.375 7.875 C-2 9 -2 9 -4 9 C-2.80100302 5.9168649 -1.52299523 2.93720508 0 0 Z " fill="#477557" transform="translate(361,611)"/>
<path d="M0 0 C0.66 0.33 1.32 0.66 2 1 C0.52307692 6.66153846 0.52307692 6.66153846 -2.125 8.375 C-2.74375 8.58125 -3.3625 8.7875 -4 9 C-2.94124926 5.59687262 -1.99097846 2.98646769 0 0 Z " fill="#417455" transform="translate(477,403)"/>
<path d="M0 0 C0.33 0 0.66 0 1 0 C1.375 2.1875 1.375 2.1875 1 5 C-0.83961648 6.99022836 -2.79186148 8.38989899 -5 10 C-3.66654496 6.40992874 -2.1056769 3.20429093 0 0 Z " fill="#D5E6DB" transform="translate(335,317)"/>
<path d="M0 0 C7.75 1.875 7.75 1.875 10 3 C10 3.66 10 4.32 10 5 C6.05140217 4.4359146 3.29120954 3.2568294 0 1 C0 0.67 0 0.34 0 0 Z " fill="#3C714F" transform="translate(121,1050)"/>
<path d="M0 0 C0.66 0 1.32 0 2 0 C1.67 2.31 1.34 4.62 1 7 C0.01 7 -0.98 7 -2 7 C-1.125 2.25 -1.125 2.25 0 0 Z " fill="#366A42" transform="translate(1054,944)"/>
<path d="M0 0 C0.66 0.33 1.32 0.66 2 1 C-2.30769231 5.92307692 -2.30769231 5.92307692 -5.8125 6.3125 C-6.8953125 6.1578125 -6.8953125 6.1578125 -8 6 C-5.63404067 3.38499232 -3.13950774 1.61000397 0 0 Z " fill="#D7E7DD" transform="translate(732,477)"/>
<path d="M0 0 C-1.875 3.875 -1.875 3.875 -3 5 C-4.66617115 5.04063832 -6.33388095 5.042721 -8 5 C-3.16129032 0 -3.16129032 0 0 0 Z " fill="#D9E9DE" transform="translate(751,467)"/>
<path d="M0 0 C0.66 0.99 1.32 1.98 2 3 C-0.625 7.875 -0.625 7.875 -4 9 C-2.80100302 5.9168649 -1.52299523 2.93720508 0 0 Z " fill="#517C60" transform="translate(502,358)"/>
<path d="M0 0 C0.66 0.99 1.32 1.98 2 3 C1.0409375 4.1446875 1.0409375 4.1446875 0.0625 5.3125 C-2.14232781 7.88246713 -2.14232781 7.88246713 -3 11 C-3.66 11 -4.32 11 -5 11 C-3.55049545 7.2089881 -1.84827434 3.6125362 0 0 Z " fill="#4A7A59" transform="translate(510,344)"/>
<path d="M0 0 C0.33 0.66 0.66 1.32 1 2 C1.99 2.33 2.98 2.66 4 3 C1.6875 4.5625 1.6875 4.5625 -1 6 C-1.99 5.67 -2.98 5.34 -4 5 C-3.34 4.01 -2.68 3.02 -2 2 C-1.34 2 -0.68 2 0 2 C0 1.34 0 0.68 0 0 Z " fill="#366F4A" transform="translate(751,295)"/>
<path d="M0 0 C0 0.66 0 1.32 0 2 C-1.72526042 2.9765625 -3.45052083 3.953125 -5.17578125 4.9296875 C-6.81982289 5.89428581 -8.41400588 6.94267059 -10 8 C-10 7.01 -10 6.02 -10 5 C-8.3203125 3.61328125 -8.3203125 3.61328125 -6.125 2.3125 C-5.40570313 1.87550781 -4.68640625 1.43851563 -3.9453125 0.98828125 C-2 0 -2 0 0 0 Z " fill="#D3E4D8" transform="translate(420,196)"/>
<path d="M0 0 C-2.97 1.65 -5.94 3.3 -9 5 C-9.33 4.34 -9.66 3.68 -10 3 C-4.5 -1.125 -4.5 -1.125 0 0 Z " fill="#446F53" transform="translate(593,397)"/>
<path d="M0 0 C-1 2 -1 2 -3.3125 3.1875 C-6.11989571 4.03624754 -7.301935 3.99928333 -10 3 C-6.48812804 0.59185923 -4.27343092 -0.36629408 0 0 Z " fill="#CDE0D2" transform="translate(786,282)"/>
<path d="M0 0 C-3.03525486 2.02350324 -4.19426202 2.32124018 -7.6875 2.625 C-8.49574219 2.69976563 -9.30398437 2.77453125 -10.13671875 2.8515625 C-10.75160156 2.90054687 -11.36648437 2.94953125 -12 3 C-7.58119757 0.05413171 -5.32232661 -0.0985616 0 0 Z " fill="#307045" transform="translate(137,26)"/>
<path d="M0 0 C0.99 0.33 1.98 0.66 3 1 C3 1.66 3 2.32 3 3 C5.475 3.99 5.475 3.99 8 5 C5 6 5 6 2.3125 4.75 C1.549375 4.1725 0.78625 3.595 0 3 C0 2.01 0 1.02 0 0 Z " fill="#357352" transform="translate(103,1039)"/>
<path d="M0 0 C1.32 0 2.64 0 4 0 C2.63016497 3.16115776 2.0109362 3.9927092 -1 6 C-0.67 4.02 -0.34 2.04 0 0 Z " fill="#275338" transform="translate(1016,1006)"/>
<path d="M0 0 C0.99 0 1.98 0 3 0 C3 0.66 3 1.32 3 2 C3.99 2.33 4.98 2.66 6 3 C6 4.65 6 6.3 6 8 C3.87961365 5.38485683 1.86908256 2.80362384 0 0 Z " fill="#DAEDE1" transform="translate(552,763)"/>
<path d="M0 0 C0.33 0 0.66 0 1 0 C1.25 2.3125 1.25 2.3125 1 5 C-1 6.8125 -1 6.8125 -3 8 C-3.66 7.67 -4.32 7.34 -5 7 C-4.19152271 5.83054208 -3.37810888 4.66449539 -2.5625 3.5 C-2.11003906 2.8503125 -1.65757812 2.200625 -1.19140625 1.53125 C-0.79824219 1.0259375 -0.40507813 0.520625 0 0 Z " fill="#DEEADF" transform="translate(576,691)"/>
<path d="M0 0 C1 3 1 3 -0.4375 6.1875 C-1.2109375 7.5796875 -1.2109375 7.5796875 -2 9 C-2.99 9 -3.98 9 -5 9 C-3.50163895 5.88801935 -1.80066242 2.9465385 0 0 Z " fill="#D8E8DD" transform="translate(624,621)"/>
<path d="M0 0 C0.66 0 1.32 0 2 0 C3.625 2.5 3.625 2.5 5 5 C4.01 5.99 3.02 6.98 2 8 C0.74335022 5.09399739 0 3.20395416 0 0 Z " fill="#396B48" transform="translate(401,506)"/>
<path d="M0 0 C0.66 0.33 1.32 0.66 2 1 C-0.36292656 3.52588702 -1.66462511 4.88820837 -5 6 C-5 5.01 -5 4.02 -5 3 C-2.625 1.25 -2.625 1.25 0 0 Z " fill="#D6E4D9" transform="translate(696,498)"/>
<path d="M0 0 C-2.85306797 2.32472205 -5.54074837 3.7508258 -9 5 C-9 4.34 -9 3.68 -9 3 C-8.34 3 -7.68 3 -7 3 C-7 2.34 -7 1.68 -7 1 C-4.53721199 -0.231394 -2.7204945 -0.07159196 0 0 Z " fill="#3C6B4D" transform="translate(753,465)"/>
<path d="M0 0 C0.99 0 1.98 0 3 0 C1.90931332 3.77545388 1.0916909 6.47043472 -2 9 C-2 7.68 -2 6.36 -2 5 C-1.34 5 -0.68 5 0 5 C0 3.35 0 1.7 0 0 Z " fill="#E6F2EA" transform="translate(463,422)"/>
<path d="M0 0 C-0.33 1.32 -0.66 2.64 -1 4 C-1.99 4 -2.98 4 -4 4 C-4.33 4.99 -4.66 5.98 -5 7 C-5.1875 4.625 -5.1875 4.625 -5 2 C-2 0 -2 0 0 0 Z " fill="#D7E8DC" transform="translate(569,412)"/>
<path d="M0 0 C0.33 0 0.66 0 1 0 C1.25 5.625 1.25 5.625 -1 9 C-1.66 9 -2.32 9 -3 9 C-2.01 6.03 -1.02 3.06 0 0 Z " fill="#497257" transform="translate(755,358)"/>
<path d="M0 0 C0.33 0.66 0.66 1.32 1 2 C-0.1875 4.5625 -0.1875 4.5625 -2 7 C-3.32 7.33 -4.64 7.66 -6 8 C-4.02 5.36 -2.04 2.72 0 0 Z " fill="#D5E5D9" transform="translate(396,213)"/>
<path d="M0 0 C3.83736322 0.95934081 4.59660228 1.23609263 7 4 C6.67 4.99 6.34 5.98 6 7 C4.02 4.69 2.04 2.38 0 0 Z " fill="#30764D" transform="translate(1011,68)"/>
<path d="M0 0 C2.875 0.75 2.875 0.75 6 2 C6.66 3.32 7.32 4.64 8 6 C3.545 4.02 3.545 4.02 -1 2 C-0.67 1.34 -0.34 0.68 0 0 Z " fill="#36764E" transform="translate(973,38)"/>
<path d="M0 0 C3.82097239 0.53069061 6.06171403 1.49701566 9 4 C8.67 4.66 8.34 5.32 8 6 C6.02 5.01 4.04 4.02 2 3 C2 2.34 2 1.68 2 1 C1.34 0.67 0.68 0.34 0 0 Z " fill="#2D7C46" transform="translate(962,32)"/>
<path d="M0 0 C0.66 0.33 1.32 0.66 2 1 C1.67 1.99 1.34 2.98 1 4 C-1.5625 5.1875 -1.5625 5.1875 -4 6 C-4 5.01 -4 4.02 -4 3 C-2.68 2.67 -1.36 2.34 0 2 C0 1.34 0 0.68 0 0 Z " fill="#356748" transform="translate(982,1035)"/>
<path d="M0 0 C1.32 0.33 2.64 0.66 4 1 C4.33 2.65 4.66 4.3 5 6 C3.0625 5.25 3.0625 5.25 1 4 C0.25 1.875 0.25 1.875 0 0 Z " fill="#325F43" transform="translate(98,1036)"/>
<path d="M0 0 C0.33 0 0.66 0 1 0 C1 1.65 1 3.3 1 5 C-0.98 5.99 -0.98 5.99 -3 7 C-3 3.4833494 -2.23600438 2.59376508 0 0 Z " fill="#346444" transform="translate(1023,998)"/>
<path d="M0 0 C0.66 0.33 1.32 0.66 2 1 C0.68 3.31 -0.64 5.62 -2 8 C-2.6875 6.25 -2.6875 6.25 -3 4 C-1.5625 1.75 -1.5625 1.75 0 0 Z " fill="#E4F2E9" transform="translate(342,642)"/>
<path d="M0 0 C2.32472205 2.85306797 3.7508258 5.54074837 5 9 C3.0625 8.4375 3.0625 8.4375 1 7 C0.25 3.375 0.25 3.375 0 0 Z " fill="#D5E6DB" transform="translate(863,522)"/>
<path d="M0 0 C2.97 0 5.94 0 9 0 C8.67 0.99 8.34 1.98 8 3 C4.92463146 2.34099246 2.92264434 1.46132217 0 0 Z " fill="#DFEDE4" transform="translate(258,447)"/>
<path d="M0 0 C0.66 0.33 1.32 0.66 2 1 C0.95125002 3.62187494 0.35068687 4.79371361 -2.125 6.25 C-2.74375 6.4975 -3.3625 6.745 -4 7 C-2.68 4.69 -1.36 2.38 0 0 Z " fill="#DAE9DE" transform="translate(389,222)"/>
<path d="M0 0 C1.875 0.1875 1.875 0.1875 4 1 C5.25 3.5625 5.25 3.5625 6 6 C5.01 6.495 5.01 6.495 4 7 C2.02 3.535 2.02 3.535 0 0 Z " fill="#447153" transform="translate(690,217)"/>
<path d="M0 0 C0.99 0 1.98 0 3 0 C3.66 2.31 4.32 4.62 5 7 C4.01 7.495 4.01 7.495 3 8 C2.01 5.36 1.02 2.72 0 0 Z " fill="#366744" transform="translate(1045,114)"/>
</svg>
